<?xml version="1.0" encoding="utf-8"?>
<svg id="eBoVt9QvwM31" viewBox="0 0 1024 512" shape-rendering="geometricPrecision" text-rendering="geometricPrecision" xmlns="http://www.w3.org/2000/svg">
  <g id="eBoVt9QvwM32" style="" transform="matrix(1.687845, 0, 0, 1.547422, 84.76136, -143.422821)">
    <path d="M 339 116.718 C 342.994 116.724 343.728 291.409 339.734 291.415 L 40.126 292.186 C 36.132 292.18 35.044 117.11 39.039 117.104 L 339 116.718 Z" style="fill: rgb(255, 255, 255);"/>
    <path d="M 509.14 261.159 C 509.343 260.961 509.472 260.841 509.472 260.841 L 433.738 174.383 C 433.738 174.383 433.553 174.463 433.242 174.589 C 431.371 172.338 428.551 170.904 425.396 170.904 L 360.197 170.904 L 360.197 109.726 C 360.197 104.094 355.631 99.527 349.998 99.527 L 29.3 99.527 C 23.667 99.527 19.101 104.094 19.101 109.726 L 19.101 333.766 L 10.199 333.766 C 4.566 333.766 0 338.333 0 343.965 C 0 349.597 4.566 354.164 10.199 354.164 L 19.101 354.164 L 19.101 366.083 C 19.101 371.715 23.667 376.282 29.3 376.282 L 49.399 376.282 C 54.06 396.969 72.571 412.473 94.646 412.473 C 116.721 412.473 135.232 396.969 139.894 376.282 L 379.145 376.282 L 379.145 376.281 C 383.806 396.968 402.317 412.472 424.392 412.472 C 446.467 412.472 464.978 396.968 469.64 376.281 L 501.802 376.281 C 507.435 376.281 512.001 371.714 512.001 366.082 L 512.001 268.231 C 512 265.482 510.908 262.993 509.14 261.159 M 94.646 392.074 C 80.314 392.074 68.654 380.413 68.654 366.082 C 68.654 351.751 80.314 340.09 94.646 340.09 C 108.978 340.09 120.639 351.751 120.639 366.082 C 120.638 380.413 108.979 392.074 94.646 392.074 M 339.799 355.882 L 139.893 355.882 C 135.232 335.195 116.721 319.691 94.645 319.691 C 72.57 319.691 54.059 335.195 49.398 355.882 L 39.499 355.882 L 39.499 310.935 L 339.798 310.935 L 339.798 355.882 L 339.799 355.882 M 339.799 290.537 L 39.499 290.537 L 39.145 117.61 L 339.444 117.61 L 339.798 290.537 L 339.799 290.537 M 435.596 207.46 L 479.895 258.032 L 435.596 258.032 L 435.596 207.46 M 424.391 392.074 C 410.059 392.074 398.399 380.413 398.399 366.082 C 398.399 351.751 410.059 340.09 424.391 340.09 C 438.723 340.09 450.384 351.751 450.384 366.082 C 450.384 380.413 438.723 392.074 424.391 392.074 M 491.602 355.882 L 469.639 355.882 C 464.978 335.195 446.467 319.691 424.391 319.691 C 402.316 319.691 383.805 335.195 379.144 355.882 L 360.197 355.882 L 360.197 191.301 L 415.197 191.301 L 415.197 268.23 C 415.197 273.862 419.763 278.429 425.396 278.429 L 491.601 278.429 L 491.601 355.882 L 491.602 355.882" fill="#233bd6"/>
    <path d="M197.865,259.059h-6.12c-5.633,0-10.199,4.567-10.199,10.199s4.566,10.199,10.199,10.199h6.12c5.633,0,10.199-4.567,10.199-10.199s-4.566-10.199-10.199-10.199Z" fill="#233bd6"/>
    <path d="M 312.143 257.566 L 226.47 257.566 C 220.837 257.566 216.271 262.133 216.271 267.765 C 216.271 273.397 220.837 277.964 226.47 277.964 L 312.143 277.964 C 317.776 277.964 322.342 273.397 322.342 267.765 C 322.342 262.133 317.776 257.566 312.143 257.566 Z" fill="#233bd6"/>
  </g>
</svg>